<?xml version="1.0" encoding="utf-8"?>
<!-- Svg Vector Icons : http://www.onlinewebfonts.com/icon -->
<!DOCTYPE svg PUBLIC "-//W3C//DTD SVG 1.1//EN" "http://www.w3.org/Graphics/SVG/1.1/DTD/svg11.dtd">
<svg version="1.1" xmlns="http://www.w3.org/2000/svg" xmlns:xlink="http://www.w3.org/1999/xlink" x="0px" y="0px" viewBox="0 0 256 256" enable-background="new 0 0 256 256" xml:space="preserve">
<metadata> Svg Vector Icons : http://www.onlinewebfonts.com/icon </metadata>
<g><g><path fill="#000000" d="M47.7,138.6c0-3.4-2.9-5.6-9.7-7.9c-9.7-3.3-16.3-7.8-16.3-16.6c0-8,5.6-14.3,15.3-16.1v-8.6h8.9v8c6,0.2,10,1.5,13.2,3l-2.7,10.2c-2.3-1.1-6.5-3.2-13-3.2c-5.9,0-7.8,2.6-7.8,5.2c0,2.9,3.2,4.9,11,7.7c10.8,3.8,15,8.8,15,17c0,8-5.6,14.9-16,16.7v9.3h-9v-8.6c-6.1-0.3-11.9-2-15.4-3.9l2.7-10.6c3.8,2.1,9.2,4,15,4C44.2,144.2,47.7,142.2,47.7,138.6L47.7,138.6z M139.8,187.2l-6.4,14.4c-1.5,3.5-2.7,7-3.9,10h-0.2c-1.2-3.2-2.2-6.2-3.8-9.8l-6.3-14.5h-14.8l14.8,25.7h-10.9v6.4h14.1v5.8h-14.1v6.4h14.1V246h13v-14.5h14.2v-6.4h-14.2v-5.8h14.2v-6.4h-10.8l15.5-25.7L139.8,187.2L139.8,187.2z M150,58.7l-24.2-0.2v-0.2c2.2-1.9,3.7-4.1,4.5-6.4c0.7-2.1,0.9-4.2,0.9-6.4l11.2,0.1l0.1-9.4l-12.4-0.1c-0.5-2.3-0.9-4.4-0.8-6.7c0-4.4,2-8.5,8.5-8.4c3.3,0,5.9,0.7,7.7,1.7l2.3-10.4c-2-1.1-5.7-2.2-10.6-2.3c-12.2-0.1-20.5,7.3-20.6,18.6c0,2.5,0.2,5.1,0.7,7.3l-7.2-0.1l-0.1,9.4l8.9,0.1c0.2,1.2,0.1,2.4,0.1,3.6c0,6.2-5.3,11.3-10.1,13.2l0,7.3l41.3,0.3L150,58.7L150,58.7z M82.7,34C62.6,43.9,46,59.8,35.4,79.4c1.9-0.2,3.9-0.4,5.9-0.4c4,0,7.9,0.6,11.6,1.5c7.6-11.7,17.8-21.6,29.9-28.7c-0.6-3.2-1-6.5-1-9.8C81.9,39.2,82.2,36.6,82.7,34L82.7,34z M207.8,83.7c3.4-0.8,6.8-1.2,10.4-1.2c2.4,0,4.7,0.2,7,0.6c-10.5-21.3-27.8-38.7-49.2-49.1c0.5,2.8,0.8,5.7,0.7,8.6c0,3.1-0.4,6.1-1,9C189,59.5,200,70.6,207.8,83.7L207.8,83.7z M82.7,208.2c-14.1-8.4-25.7-20.5-33.5-35c-2.6,0.4-5.1,0.7-7.8,0.7c-3.3,0-6.6-0.4-9.7-1c10.2,23.2,28.5,42.1,51.2,53.2c-0.6-3.1-1-6.2-1-9.5C81.9,213.7,82.2,210.9,82.7,208.2L82.7,208.2z M207.8,176.3c-7.8,13.1-18.7,24.1-31.7,31.9c0.5,2.7,0.8,5.5,0.8,8.4c0,3.3-0.3,6.4-1,9.5c21.4-10.4,38.8-27.8,49.3-49.2c-2.3,0.3-4.6,0.6-7,0.6C214.6,177.5,211.1,177.1,207.8,176.3L207.8,176.3z M221.8,110.5c4,0,7.8,1.2,10.1,2.2l2.5-10.3c-3.3-1.4-8.1-2.7-13.6-2.7c-8.6,0-15.8,3.4-20.9,9.3c-2.9,3.3-5.2,7.4-6.2,12.3h-6.1v6.4h5.1c0,0.9-0.1,1.8-0.1,2.7c0,0.6,0,1.1,0,1.5h-5v6.4h5.9c0.8,4.8,2.6,8.7,5.1,11.8c5.1,6.7,13.1,10.3,22.1,10.3c5.8,0,11-1.7,14.1-3.4l-2.2-10c-1.9,1-6.2,2.4-10.3,2.4c-4.5,0-8.8-1.4-11.7-4.6c-1.3-1.5-2.4-3.6-3-6.3h22.7v-6.4h-24c0-0.5,0-0.9,0-1.4c0-1,0-1.9,0.1-2.8h23.9v-6.4h-22.5c0.6-2.4,1.5-4.4,2.9-5.9C213.5,112,217.5,110.5,221.8,110.5z"/></g></g>
</svg>